<?xml version="1.0" encoding="UTF-8"?>
<svg id="BACKOVER" xmlns="http://www.w3.org/2000/svg" version="1.1" xmlns:xlink="http://www.w3.org/1999/xlink" viewBox="0 0 110.35 101.74">
  <!-- Generator: Adobe Illustrator 29.7.1, SVG Export Plug-In . SVG Version: 2.1.1 Build 8)  -->
  <defs>
    <style>
      .st0 {
        fill: url(#linear-gradient2);
      }

      .st1, .st2 {
        fill: #fff;
      }

      .st3 {
        fill: url(#linear-gradient1);
      }

      .st4 {
        fill: url(#linear-gradient);
      }

      .st2 {
        font-family: Aventa-Regular, Aventa-Regular;
        font-size: 4.36px;
      }
    </style>
    <linearGradient id="linear-gradient" x1="82.14" y1="27.68" x2="38.69" y2="57.22" gradientUnits="userSpaceOnUse">
      <stop offset="0" stop-color="#61bf82"/>
      <stop offset="1" stop-color="#38bdbc"/>
    </linearGradient>
    <linearGradient id="linear-gradient1" x1="87.47" y1="35.51" x2="44.01" y2="65.05" xlink:href="#linear-gradient"/>
    <linearGradient id="linear-gradient2" x1="87.16" y1="35.06" x2="43.7" y2="64.6" xlink:href="#linear-gradient"/>
  </defs>
  <text class="st2" transform="translate(32.82 67.53)"><tspan x="0" y="0">MARKETING</tspan></text>
  <polygon class="st1" points="33.44 33.11 38.2 45.12 34.28 54.55 30.77 45.04 30.77 60.48 23.26 60.48 23.26 33.11 33.44 33.11"/>
  <polygon class="st4" points="47.3 42.54 52.14 55.47 48.72 55.47 46.88 60.48 39.28 60.48 47.3 42.54"/>
  <polygon class="st1" points="50.97 33.11 58.15 33.11 68.66 60.48 61.4 60.48 50.97 33.11"/>
  <g>
    <path class="st3" d="M87.09,46.76c.02,7.26-5.64,13.21-12.79,13.64l-.72-2.11-1.58-4.63c-.79-1.78.11-3.18,1.34-4.19,1.62-1.33,3.74-1.9,5.82-1.61.34.05.61.09.71.1,1.02.17,1.88.46,1.97,1.76,1.03-1.42.93-2.82.31-4.25-.38-.88-1.06-1.5-1.92-1.86-.75-.31-1.27-.82-1.68-1.47-.59-.92-1.51-1.33-2.5-1.5-.54-.1-1.07-.18-1.61-.26-1.1-.16-2.2-.28-3.3-.38-.29-.03-.57-.05-.86-.07h-3.73l-.07-.19-1.37-3.71-.03-.08-1.02-2.78h9.33c7.52,0,13.69,6.06,13.71,13.59Z"/>
    <path class="st0" d="M73.37,41.94c.53.08,1.06.12,1.58.25.98.25,1.95.54,2.92.82.3.08.31.25.19.51-.26.55-.88.89-1.47.77-.58-.11-1.04-.66-1.09-1.3,0-.12,0-.24,0-.37-.72-.21-1.42-.41-2.13-.62v-.06Z"/>
  </g>
</svg>